<svg width="693" height="244" viewBox="0 0 693 244" fill="none" xmlns="http://www.w3.org/2000/svg">
<path d="M16.6 194V54H85C102.6 54 115.8 57.3333 124.6 64C133.533 70.6667 138 79.4667 138 90.4C138 97.7333 136.2 104.133 132.6 109.6C129 114.933 124.067 119.067 117.8 122C111.533 124.933 104.333 126.4 96.2 126.4L100 118.2C108.8 118.2 116.6 119.667 123.4 122.6C130.2 125.4 135.467 129.6 139.2 135.2C143.067 140.8 145 147.667 145 155.8C145 167.8 140.267 177.2 130.8 184C121.333 190.667 107.4 194 89 194H16.6ZM48.8 169.6H86.6C95 169.6 101.333 168.267 105.6 165.6C110 162.8 112.2 158.4 112.2 152.4C112.2 146.533 110 142.2 105.6 139.4C101.333 136.467 95 135 86.6 135H46.4V111.4H81C88.8667 111.4 94.8667 110.067 99 107.4C103.267 104.6 105.4 100.4 105.4 94.8C105.4 89.3333 103.267 85.2667 99 82.6C94.8667 79.8 88.8667 78.4 81 78.4H48.8V169.6ZM173.33 194V45.6H204.53V194H173.33ZM305.486 194V173L303.486 168.4V130.8C303.486 124.133 301.419 118.933 297.286 115.2C293.286 111.467 287.086 109.6 278.686 109.6C272.953 109.6 267.286 110.533 261.686 112.4C256.219 114.133 251.553 116.533 247.686 119.6L236.486 97.8C242.353 93.6667 249.419 90.4667 257.686 88.2C265.953 85.9333 274.353 84.8 282.886 84.8C299.286 84.8 312.019 88.6667 321.086 96.4C330.153 104.133 334.686 116.2 334.686 132.6V194H305.486ZM272.686 195.6C264.286 195.6 257.086 194.2 251.086 191.4C245.086 188.467 240.486 184.533 237.286 179.6C234.086 174.667 232.486 169.133 232.486 163C232.486 156.6 234.019 151 237.086 146.2C240.286 141.4 245.286 137.667 252.086 135C258.886 132.2 267.753 130.8 278.686 130.8H307.286V149H282.086C274.753 149 269.686 150.2 266.886 152.6C264.219 155 262.886 158 262.886 161.6C262.886 165.6 264.419 168.8 267.486 171.2C270.686 173.467 275.019 174.6 280.486 174.6C285.686 174.6 290.353 173.4 294.486 171C298.619 168.467 301.619 164.8 303.486 160L308.286 174.4C306.019 181.333 301.886 186.6 295.886 190.2C289.886 193.8 282.153 195.6 272.686 195.6ZM415.905 195.6C405.771 195.6 396.638 193.333 388.505 188.8C380.371 184.133 373.905 177.667 369.105 169.4C364.438 161.133 362.105 151.4 362.105 140.2C362.105 128.867 364.438 119.067 369.105 110.8C373.905 102.533 380.371 96.1333 388.505 91.6C396.638 87.0667 405.771 84.8 415.905 84.8C424.971 84.8 432.905 86.8 439.705 90.8C446.505 94.8 451.771 100.867 455.505 109C459.238 117.133 461.105 127.533 461.105 140.2C461.105 152.733 459.305 163.133 455.705 171.4C452.105 179.533 446.905 185.6 440.105 189.6C433.438 193.6 425.371 195.6 415.905 195.6ZM421.305 170C426.371 170 430.971 168.8 435.105 166.4C439.238 164 442.505 160.6 444.905 156.2C447.438 151.667 448.705 146.333 448.705 140.2C448.705 133.933 447.438 128.6 444.905 124.2C442.505 119.8 439.238 116.4 435.105 114C430.971 111.6 426.371 110.4 421.305 110.4C416.105 110.4 411.438 111.6 407.305 114C403.171 116.4 399.838 119.8 397.305 124.2C394.905 128.6 393.705 133.933 393.705 140.2C393.705 146.333 394.905 151.667 397.305 156.2C399.838 160.6 403.171 164 407.305 166.4C411.438 168.8 416.105 170 421.305 170ZM449.505 194V172L450.105 140L448.105 108.2V45.6H479.305V194H449.505Z" fill="white"/>
<path d="M567.581 195.6C555.315 195.6 544.515 193.2 535.181 188.4C525.981 183.6 518.848 177.067 513.781 168.8C508.715 160.4 506.181 150.867 506.181 140.2C506.181 129.4 508.648 119.867 513.581 111.6C518.648 103.2 525.515 96.6667 534.181 92C542.848 87.2 552.648 84.8 563.581 84.8C574.115 84.8 583.581 87.0667 591.981 91.6C600.515 96 607.248 102.4 612.181 110.8C617.115 119.067 619.581 129 619.581 140.6C619.581 141.8 619.515 143.2 619.381 144.8C619.248 146.267 619.115 147.667 618.981 149H531.581V130.8H602.581L590.581 136.2C590.581 130.6 589.448 125.733 587.181 121.6C584.915 117.467 581.781 114.267 577.781 112C573.781 109.6 569.115 108.4 563.781 108.4C558.448 108.4 553.715 109.6 549.581 112C545.581 114.267 542.448 117.533 540.181 121.8C537.915 125.933 536.781 130.867 536.781 136.6V141.4C536.781 147.267 538.048 152.467 540.581 157C543.248 161.4 546.915 164.8 551.581 167.2C556.381 169.467 561.981 170.6 568.381 170.6C574.115 170.6 579.115 169.733 583.381 168C587.781 166.267 591.781 163.667 595.381 160.2L611.981 178.2C607.048 183.8 600.848 188.133 593.381 191.2C585.915 194.133 577.315 195.6 567.581 195.6ZM646.353 194V45.6H677.553V194H646.353Z" fill="#F89520"/>
</svg>
